<svg xmlns="http://www.w3.org/2000/svg" viewBox="0 0 394.74 394.74"><defs><style>.cls-1{fill:#122824;}</style></defs><g id="Capa_2" data-name="Capa 2"><g id="Capa_1-2" data-name="Capa 1"><path class="cls-1" d="M155.83,208.82q-5.43,11.6-1.32,25.39,4.4,14.53,16.88,20a29.39,29.39,0,0,0,12.18,2.5q2.06,0,6,.22l6.68.37A48.89,48.89,0,0,0,203,257a28.22,28.22,0,0,0,6.67-1.33,21.2,21.2,0,0,0,5.66-3.15,17.4,17.4,0,0,0,4.77-5.51,32.59,32.59,0,0,0,3-8.58,56.85,56.85,0,0,0,1.17-12.19V196.19H175.5Q161.85,196.19,155.83,208.82Z"/><path class="cls-1" d="M197.37,0C88.36,0,0,88.36,0,197.37S88.36,394.74,197.37,394.74s197.37-88.37,197.37-197.37S306.37,0,197.37,0ZM303.49,196.49H278.25V305.55h-54V253.88A121.93,121.93,0,0,1,215,272.3a109,109,0,0,1-12.4,16.37A54.28,54.28,0,0,1,186,301a45.4,45.4,0,0,1-19.89,4.55,106,106,0,0,1-20.84-2.06,83.5,83.5,0,0,1-20.11-6.82,72.54,72.54,0,0,1-17.32-11.6,49.8,49.8,0,0,1-12-17.32,57.4,57.4,0,0,1-4.55-23.12,56.81,56.81,0,0,1,3.15-19.52,36,36,0,0,1,8.66-13.94,61.28,61.28,0,0,1,11.67-8.88A47.82,47.82,0,0,1,128.38,197a117.16,117.16,0,0,1,13-2.27,106.16,106.16,0,0,1,11.23-.59v-.88q-3.53,0-7.19-.22a84.2,84.2,0,0,1-9.62-1.32,82.11,82.11,0,0,1-11.15-2.86,56.84,56.84,0,0,1-10.86-5.14,39.23,39.23,0,0,1-9.62-7.93,37.64,37.64,0,0,1-6.6-11.52,43.87,43.87,0,0,1-2.65-15.63q0-15.42,6.61-27a49.3,49.3,0,0,1,18.79-18.57,98.08,98.08,0,0,1,28-10.42,167.56,167.56,0,0,1,35.52-3.45q37.44,0,57.47,5.72t29.14,21.29q8.07,15.55-2.57,28.55t-31.34,13h-8.81a96.2,96.2,0,0,0-3.45-26.57q-3.45-12-9.1-19.6a43.54,43.54,0,0,0-12.62-11.66,28.11,28.11,0,0,0-14.46-4.11q-14.82,0-25.32,15.33T152.31,155q0,7.63.36,12.11a49.12,49.12,0,0,0,1.84,9.54,16.46,16.46,0,0,0,4.33,7.7,22.32,22.32,0,0,0,8,4.41,39.9,39.9,0,0,0,12.77,1.76H303.49Z"/></g></g></svg>