<svg xmlns="http://www.w3.org/2000/svg" viewBox="0 0 289.76 343.96"><defs><style>.cls-1{fill:#fff1d9;}</style></defs><g id="Capa_2" data-name="Capa 2"><g id="Capa_1-2" data-name="Capa 1"><path class="cls-1" d="M200.91,344c-8.35-5.66-16.88-11.09-25-17.11a23.38,23.38,0,0,1-7.45-9c-18-42.23-35.61-84.58-53.37-126.89-.86-2.06-1.91-4.05-3.21-6.79-8.64,5.08-16.88,9.89-25.1,14.76C66.92,210.68,47,222.4,27.21,234.34c-3.67,2.22-6.53,2.86-10.26.16-5.7-4.13-15.17-6.72-16.71-11.87S4.81,210,8,203.74q37.1-73.8,74.49-147.45a22.26,22.26,0,0,1,8-8.52c27-16.11,54.23-31.89,81.38-47.77h3.06c6.3,3.72,12.45,7.73,19,11.06,4.87,2.51,7.51,6,9.17,11.22,7.49,23.68,15.31,47.25,23.26,70.77,1.63,4.82,1,7.65-3.43,10.76-20.2,14.29-28.2,38.61-20.65,61.21a54.47,54.47,0,0,0,53.39,37.74c5.08-.11,7.09,1.33,8.61,6.08q12,37.65,24.76,75.06c1.85,5.44.47,8.13-4.3,11-27,16.17-53.82,32.67-80.7,49.07ZM88.7,57.12,6,220.89l15.19,8.85L95.19,129.33c2.59,5.27,4.38,8.49,5.8,11.87,23,55,46.55,109.78,68.64,165.14,5.21,13.05,14.63,19,26.3,26-.51-2-.68-2.94-1-3.79q-42-127.89-84.14-255.75c-.59-1.81-1.56-4-3-4.92C101.79,64.14,95.51,60.89,88.7,57.12Zm5.1-4.44c3.81,2.2,6.86,3.56,9.44,5.53,6,4.54,11.37,5,17.64.13,4.76-3.7,10.47-6.17,15.74-9.22,18.08-10.46,36.15-20.94,55.2-32-5.91-3.38-10.59-6.37-15.57-8.71a7.75,7.75,0,0,0-6.2.3C144.94,23,120,37.55,93.8,52.68Z"/><path class="cls-1" d="M253.63,182c-18.59,0-34-15.35-34-33.77s15.43-33.68,34.13-33.68,34,15.33,34,33.8S272.36,182.05,253.63,182Zm-.14-61.19c-11-.38-19.2,4.53-24.52,13.84-5.17,9-5.39,18.61.24,27.49,1.55,2.44,5.52,4.8,8.32,4.73,14.48-.33,25.56-7.22,33.68-19.18,11.29-16.62,2.43-22.14-13.15-26.83C256.66,120.47,255,120.84,253.49,120.84Z"/></g></g></svg>