<?xml version="1.0" encoding="utf-8"?>
<!-- Generator: Adobe Illustrator 26.3.0, SVG Export Plug-In . SVG Version: 6.00 Build 0)  -->
<svg version="1.1" id="Capa_1" xmlns="http://www.w3.org/2000/svg" xmlns:xlink="http://www.w3.org/1999/xlink" x="0px" y="0px"
	 viewBox="0 0 394.9 88.1" style="enable-background:new 0 0 394.9 88.1;" xml:space="preserve">
<style type="text/css">
	.st0{fill:#E1DFBA;}
</style>
<g id="Capa_2_00000058584571488612531010000007601554534314094477_">
	<g id="Capa_1-2">
		<path class="st0" d="M127.5,88.1h-5V1.9h4.5v12.8l0.5,0.2c0.5-0.6,0.9-1.2,1.3-1.8c5.5-9.6,14.3-13.8,25.2-12.7
			c12.8,1.3,19.8,9.1,23.4,20.6c3.5,10.5,2.6,22-2.5,31.8c-4.5,9.1-12.3,13.2-22.1,13.7c-7.3,0.4-14.4-0.9-20.1-6
			c-1.9-1.8-3.6-3.8-5.3-5.8L127.5,88.1z M174.7,33.5c-0.2-2.2-0.3-4.4-0.7-6.5c-0.3-2-0.8-3.9-1.5-5.8
			c-4.1-12.1-12.5-17.6-24.9-16.5c-8.6,0.9-15.8,6.8-18.2,15.1c-2.4,7.9-2.7,16.2-1,24.2c1.7,8.2,6.5,16.8,20.5,18.3
			c9.2,0.8,17.9-4.1,22-12.3C173.4,44.9,174.7,39.2,174.7,33.5L174.7,33.5z"/>
		<path class="st0" d="M56.1,34.3H5.2C4.8,40,6,45.6,8.6,50.7c5.2,9.7,15.7,13.7,27.2,10.5c6.9-1.7,12.4-7,14.2-13.9
			c1-3.4,2.4-4.2,5.7-3.1c-0.2,1-0.4,2.1-0.6,3.2c-2.9,11-12.6,18.8-23.9,19.2c-8.1,0.5-15.4-1.7-21.5-7C4.5,55.1,2.2,49,0.8,42.4
			c-1.5-6.8-0.6-13.3,0.8-20C4,11.2,14.4,1.4,25.7,0.2c11.8-1.4,23.1,5.1,27.9,16C55.7,21.2,56.8,29.3,56.1,34.3z M51.3,29.8
			c-0.2-13.6-9-26-24-25.1C14.8,5.4,4.2,17.3,5.3,29.8H51.3z"/>
		<path class="st0" d="M276.7,34.3h-51.5c-1.1,8.6,2.5,19.7,11.2,25c7.7,4.7,18.7,4.2,25.8-1.2c3.7-2.9,6.4-6.9,7.7-11.5
			c0.5-1.6,1.3-2.8,3.2-2.8c1.5,0,2.1,0.5,1.8,2.1c-1.8,8.3-6.4,14.5-14,18.1c-17.6,8.3-36.7-1.7-40.2-21c-1.8-9.1-0.8-18.5,3-26.9
			c4.8-10.8,16.1-17.1,27.9-15.6c13.8,1.9,21.6,9.9,23.8,24.4C275.8,27.9,276.2,30.9,276.7,34.3z M271,29.8
			c0.4-11.4-7.4-25.5-22.5-25.1C235.1,5,224,16.8,225.2,29.8H271z"/>
		<path class="st0" d="M333,20.4c-0.3,0-0.6,0.1-0.8,0.1c-3.1,0.1-3.1,0.1-3.6-3c-1-6.4-5.7-11-12.7-12.3c-6.4-1.3-13-0.4-18.8,2.6
			c-3.6,1.6-5.8,5.3-5.5,9.2c0.1,4.4,2.1,7.9,6.4,9.2c7.3,2.3,14.8,4.2,22.1,6.3c1.1,0.3,2.3,0.6,3.5,0.9
			c6.4,1.6,10.6,6.1,11.4,12.2c1,7.8-1.5,13.7-7.7,17c-9.7,5.2-19.8,5.1-29.9,1.2c-6.6-2.6-10.5-7.6-12.2-14.4
			c-0.4-1.5-0.5-3-0.7-4.7h4.4c0.4,2,1,3.9,1.6,5.8c2.9,7.1,8.8,10.5,16,11.7c6,1.1,12.2,0.1,17.6-2.7c4.8-2.5,6.7-6.5,6.2-11.8
			c-0.4-4.7-3.1-7.7-7.5-9c-6.7-2.1-13.5-4-20.2-6.1c-2.5-0.8-5-1.9-7.5-2.9c-5.9-2.5-8.6-6.6-8.4-13c0.2-6,2.7-10.5,8.3-13.1
			c9.8-4.6,19.5-4.6,29.2,0.2C330.6,6.7,334.1,13.5,333,20.4z"/>
		<path class="st0" d="M392.5,20.4h-4c-0.1-1-0.3-2.1-0.5-3.1c-0.9-5.4-3.8-9.2-9-11c-7-2.6-14.7-2.3-21.6,0.7
			c-4.3,1.9-6.7,6.1-6.3,11.1c0.3,4.2,3.2,7.6,7.8,8.8c8.3,2.2,16.7,4.1,24.9,6.8c8.3,2.6,13,11.4,10.4,19.8c-0.6,2.1-1.7,4-3.1,5.6
			c-3,3.5-7,5.1-11.3,6.3c-7.6,2.1-15.7,1.7-22.9-1.4c-8-3.3-13.2-11.4-12.4-19.4h3.9c0.2,0.7,0.4,1.4,0.7,2.1
			c3.9,12.3,17,19.1,29.3,15.2c2.6-0.8,5-2.1,7.1-3.7c3.8-2.9,5.1-6.9,4.4-11.5c-0.6-4.3-3.3-7-7.5-8.2c-7-2.1-14.1-4.2-21.1-6.3
			c-2.3-0.7-4.5-1.6-6.6-2.5c-6.2-2.6-9.2-7.8-8.4-14.5c0.6-5.3,3.1-9.2,8.1-11.6c10-4.8,19.9-4.8,29.7,0.3
			C390.1,7,393.8,14.4,392.5,20.4z"/>
		<path class="st0" d="M60.8,1.9c3.6-1.2,6.6-0.1,8.9,3c5.3,7.2,10.7,14.5,16,21.7c0.3,0.5,0.7,0.9,1.1,1.4c0.4-0.5,0.7-0.9,1.1-1.3
			c5.5-7.4,11-14.8,16.6-22.2c1.9-2.5,4.6-3.5,8-2.5c-0.3,0.5-0.6,1-0.9,1.4c-6.6,8.7-13.2,17.4-19.9,26.1c-1.5,1.9-1.5,3,0,4.9
			c7.3,9.8,14.7,19.6,22,29.4c0.3,0.3,0.5,0.7,0.7,1.1c-2.9,1.4-6.3,0.3-8.4-2.7c-6-8.4-12-16.7-18.1-25.1c-0.3-0.4-0.7-0.8-1.2-1.4
			c-0.4,0.5-0.8,0.9-1.1,1.3L67,62.3c-1.8,2.5-5.1,3.5-7.9,2.4c0.5-0.7,0.9-1.3,1.4-2c7.4-9.8,14.7-19.7,22.1-29.6
			c0.8-0.8,0.8-2,0-2.8c0,0,0,0,0,0C75.6,21.4,68.8,12.4,62,3.5C61.6,3,61.2,2.5,60.8,1.9z"/>
		<path class="st0" d="M194.7,1.9v12.1c5.9-8.7,14.3-12.2,24.6-12.3v4.1c-2,0.2-4,0.3-5.9,0.7c-11,2.1-18.9,11.9-18.6,23.1
			c0,11.1,0,22.2,0,33.4v2h-4.4v-63L194.7,1.9z"/>
	</g>
</g>
</svg>
