<svg xmlns="http://www.w3.org/2000/svg" viewBox="0 0 23.59 26.77"><defs><style>.cls-1{fill:#e1dfba;}</style></defs><g id="Capa_2" data-name="Capa 2"><g id="Capa_1-2" data-name="Capa 1"><path class="cls-1" d="M.41,0A.4.4,0,0,0,0,.45L2.08,23.71a.68.68,0,0,0,.47.56l8.8,2.45a2.08,2.08,0,0,0,.86,0L21,24.27a.71.71,0,0,0,.47-.57L23.58.45a.4.4,0,0,0-.4-.45ZM19.17,5.34c0,.21-.06.59-.08.84L19,6.79c0,.24-.06.59-.07.78a2.63,2.63,0,0,1,0,.33H8.05a.4.4,0,0,0-.41.45l.19,2.14a.51.51,0,0,0,.49.44h10a.36.36,0,0,1,.36.4c0,.22-.05.6-.07.84l-.62,6.91c0,.25-.05.56-.06.7s-.22.3-.46.37l-5.2,1.44-.43.12-.44-.12L6.14,20.15a.71.71,0,0,1-.47-.57l-.33-3.76a.4.4,0,0,1,.4-.44H7.82a.5.5,0,0,1,.49.44l.13,1.47a.71.71,0,0,0,.47.57l2.44.65.43.12.44-.12,2.43-.66a.69.69,0,0,0,.48-.56l.26-2.95A.4.4,0,0,0,15,13.9H5.61a.5.5,0,0,1-.48-.45L4.48,6.18c0-.25-.06-.63-.08-.85a.38.38,0,0,1,.41-.39h14A.39.39,0,0,1,19.17,5.34Z"/></g></g></svg>