<svg xmlns="http://www.w3.org/2000/svg" viewBox="0 0 342.43 388.59"><defs><style>.cls-1{fill:#fff1d9;}</style></defs><g id="Capa_2" data-name="Capa 2"><g id="Capa_1-2" data-name="Capa 1"><path class="cls-1" d="M5.94,0A5.84,5.84,0,0,0,0,6.47L30.14,344.2A10.11,10.11,0,0,0,37,352.4l127.77,35.48a27.81,27.81,0,0,0,12.51,0l128.16-35.54a10.11,10.11,0,0,0,6.84-8.2L342.41,6.47A5.85,5.85,0,0,0,336.49,0ZM278.58,77.69c-.28,3.19-.78,8.73-1.1,12.3l-.79,8.91c-.32,3.58-.78,8.69-1,11.36s-.47,4.86-.51,4.86H117.42a5.81,5.81,0,0,0-5.87,6.42l2.76,30.88a7.21,7.21,0,0,0,7,6.42H265.4a5.22,5.22,0,0,1,5.27,5.78c-.29,3.18-.79,8.69-1.11,12.26l-9,100.47c-.32,3.56-.73,8.11-.9,10.11s-3.14,4.42-6.59,5.38l-75.63,21-6.36,1.75c-.06,0-2.92-.76-6.37-1.71L89,292.84a10.14,10.14,0,0,1-6.85-8.22l-4.87-54.71a5.85,5.85,0,0,1,5.92-6.47h30.54a7.22,7.22,0,0,1,7,6.44l1.9,21.27a10,10,0,0,0,6.81,8.12l35.19,9.5,6.26,1.69,6.27-1.69,35.25-9.52a10,10,0,0,0,6.81-8.12l3.82-42.62a5.82,5.82,0,0,0-5.88-6.44H81.45a7.26,7.26,0,0,1-7.08-6.47L64.94,89.91c-.32-3.56-.81-9.07-1.09-12.25s2.41-5.77,6-5.77H272.57C276.16,71.89,278.87,74.5,278.58,77.69Z"/></g></g></svg>