<svg xmlns="http://www.w3.org/2000/svg" viewBox="0 0 324.56 357.66"><defs><style>.cls-1{fill:#fff1d9;}</style></defs><g id="Capa_2" data-name="Capa 2"><g id="Capa_1-2" data-name="Capa 1"><path class="cls-1" d="M147.64,3.82a30,30,0,0,1,29.28,0q66.86,37.77,133.73,75.54a27.53,27.53,0,0,1,13.91,23.71V254.61c.06,10.06-6.1,19.61-14.94,24.23Q243,316.41,176.35,354a29.15,29.15,0,0,1-29.6-.83q-20-11.58-40-23.12c-2.73-1.62-5.79-2.91-7.72-5.55,1.7-2.29,4.74-2.58,7.21-3.58,5.56-1.76,10.67-4.6,15.77-7.36a3.7,3.7,0,0,1,4.11.25c11.39,6.53,22.68,13.25,34.11,19.72,2.44,1.41,4.91-.46,7-1.62q65.4-37,130.85-73.84a4.33,4.33,0,0,0,2.37-4.26q0-75,0-150a4.7,4.7,0,0,0-2.79-4.67q-66.42-37.41-132.8-74.85a4.63,4.63,0,0,0-5.22,0Q93.27,61.74,26.89,99.19a4.64,4.64,0,0,0-2.81,4.65q0,75,0,150A4.23,4.23,0,0,0,26.49,258q17.72,10.05,35.46,20c6.66,3.58,14.84,5.71,22.18,3A16.82,16.82,0,0,0,95,265.23c.07-49.7,0-99.4,0-149.1a3.75,3.75,0,0,1,4.08-3.82c5.67,0,11.36-.07,17,0,2.37-.06,4,2.32,3.71,4.54,0,50,.06,100,0,150.05,0,13.33-5.46,27.83-17.79,34.35-15.19,7.87-34,6.2-49-1.34-13-6.49-25.38-14.14-38.14-21.09A27.77,27.77,0,0,1,0,254.61V103.07a27.59,27.59,0,0,1,14.38-24Q81,41.46,147.64,3.82Z"/><path class="cls-1" d="M186.39,108.79c19.38-1.25,40.12-.74,57.55,8.81,13.5,7.31,21,22.66,21.22,37.66a4.07,4.07,0,0,1-4.42,3c-5.62,0-11.24.07-16.87,0-2.38.09-3.77-2.11-4.07-4.22-1.61-7.17-5.52-14.28-12.28-17.74-10.37-5.19-22.39-4.93-33.69-4.82-8.25.44-17.13,1.15-24.12,6-5.37,3.67-7,11.09-5.08,17.07,1.8,4.29,6.76,5.68,10.81,6.95,23.35,6.11,48.09,5.5,71,13.54,9.49,3.28,18.76,9.64,22,19.57,4.24,13.31,2.38,29.21-7.08,39.9-7.68,8.79-18.86,13.57-30,16.17-14.84,3.31-30.24,3.39-45.3,1.92-14.17-1.61-28.91-5.33-39.85-15-9.35-8.12-13.92-20.77-13.47-33a3.77,3.77,0,0,1,4.14-3.33c5.66-.05,11.32-.07,17,0a4,4,0,0,1,4.05,3.93c1,6.83,3.62,14,9.58,18.06,11.5,7.42,25.94,6.92,39.11,7.12,10.92-.48,23.17-.63,32.08-7.84,4.7-4.11,6.09-11,4.82-16.92-1.38-5-6.61-7.33-11.1-8.85-23-7.29-48.07-4.65-70.89-12.89-9.27-3.28-18.23-9.47-21.79-19-5-13.48-2.69-30.14,7.76-40.46,10.2-10.27,24.92-14.23,38.92-15.64Z"/></g></g></svg>