<svg xmlns="http://www.w3.org/2000/svg" viewBox="0 0 25.39 25.66"><defs><style>.cls-1{fill:#e1dfba;}</style></defs><g id="Capa_2" data-name="Capa 2"><g id="Capa_1-2" data-name="Capa 1"><path class="cls-1" d="M25.31,18.78a2.06,2.06,0,0,1-1.14,1.28c-3.4,1.75-6.8,3.49-10.18,5.26a2.55,2.55,0,0,1-2.59,0c-1.19-.65-2.39-1.28-3.71-2C8.4,23,9,22.79,9.5,22.54c.28-.12.47,0,.67.14.7.37,1.4.73,2.09,1.12a.86.86,0,0,0,.9,0q4.93-2.57,9.9-5.11a.77.77,0,0,0,.46-.78c0-3.38,0-6.75,0-10.13A.76.76,0,0,0,23,7q-4.92-2.53-9.83-5.09a1,1,0,0,0-1,0Q7.3,4.5,2.41,7a.83.83,0,0,0-.52.83q0,5,0,10a.73.73,0,0,0,.44.79c.87.42,1.73.89,2.6,1.33,1.15.58,2.57.27,2.53-1.4-.09-3.22,0-6.45,0-9.68,0-.75.33-.82,1-.83s1,.11,1,.84c-.05,3.35,0,6.7,0,10.06,0,2.24-1.58,3.42-4,2.91A14.8,14.8,0,0,1,.71,19.67,1.72,1.72,0,0,1,0,18.09c0-3.47,0-6.95,0-10.42a2.15,2.15,0,0,1,1.31-2C4.78,3.85,8.25,2.05,11.71.26c.13-.07.32-.08.36-.26H13.2a12.75,12.75,0,0,1,3.36,1.52C19,2.75,21.41,4,23.84,5.28c.83.42,1.66.88,1.54,2V18A1.63,1.63,0,0,1,25.31,18.78Z"/><path class="cls-1" d="M15.9,18.21a8.57,8.57,0,0,1-3.68-.67,2.9,2.9,0,0,1-1.8-2.45c0-.42.08-.62.6-.64.77,0,1.39,0,1.55.9.1.58.7.86,1.29,1a9.26,9.26,0,0,0,4,0,2.12,2.12,0,0,0,.72-.32,1.07,1.07,0,0,0,.49-1.1c0-.45-.37-.63-.76-.76a20.14,20.14,0,0,0-3.64-.57,14.25,14.25,0,0,1-1.73-.32c-1.43-.39-2.1-1.12-2.17-2.27A2.61,2.61,0,0,1,12.64,8.3a9,9,0,0,1,5.84-.08,3.09,3.09,0,0,1,2.23,2.42c.13.55,0,.75-.67.76s-1.34,0-1.48-.83a.87.87,0,0,0-.25-.37c-.79-.89-4.27-1-5.14-.2a.88.88,0,0,0,.42,1.56,19.64,19.64,0,0,0,3.32.54,14.77,14.77,0,0,1,2.2.44c1.15.33,1.94.94,2,2.11a2.73,2.73,0,0,1-1.59,2.85A7.86,7.86,0,0,1,15.9,18.21Z"/></g></g></svg>