<?xml version="1.0" encoding="utf-8"?>
<!-- Generator: Adobe Illustrator 26.3.0, SVG Export Plug-In . SVG Version: 6.00 Build 0)  -->
<svg version="1.1" id="Capa_1" xmlns="http://www.w3.org/2000/svg" xmlns:xlink="http://www.w3.org/1999/xlink" x="0px" y="0px"
	 viewBox="0 0 375.6 387" style="enable-background:new 0 0 375.6 387;" xml:space="preserve">
<style type="text/css">
	.st0{fill:#E1DFBA;}
</style>
<g id="Capa_2_00000116199951083482175550000006056082527531210377_">
	<g id="Capa_1-2">
		<path class="st0" d="M328.1,221.6l20.9-3.5c10-1.7,19.3,2,23.8,9.5s3.7,17.4-3.1,25.3c-15.6,18-36.4,24.7-59.3,26.2
			c-3.8,0.3-7.5,0-11.9,0c-1.3,13.2-2.4,25.9-4,38.6c-0.8,6.7-2.1,13.3-3.9,19.8c-9.5,33.5-33.7,50.9-73.1,49.5
			c-16-0.5-27.1-10-33.9-24.2c-7.3-15.3-9.9-31.8-10.6-48.5c-0.3-7.5-0.1-15-0.1-23.6c-24.1,6-45.7,6-65.1-8.5
			c-24.9,12.3-41.5,8.3-57.9-14.8c-16.1-22.7-24.8-48.9-32.2-75.4C8.2,158-1.7,124.2,0.3,88.5C3.4,32.4,38.7,2,94.9,5.6
			c16.2,1.1,32.1,5.8,48.2,8.6c2.9,0.5,6.5,0.6,9.1-0.7c20.6-10.2,42.3-10.4,64.4-8.1c4.6,0.5,9.2,0.2,13.8-0.7
			c33.4-7.3,66.2-7.4,97.6,8.5c3.9,2,7.6,4.4,11.3,6.7c29.6,18.3,38.7,45,33.5,78.4c-6.2,40.1-20,77.4-39,113
			C332.1,214,330.7,216.8,328.1,221.6z M309,229.4c1.8-3.1,3.2-5.6,4.7-8.1c22.4-37.1,38.7-76.6,46.4-119.4
			c7.4-41.5-5.5-65.9-44.7-82c-28-11.5-56.5-10.5-85.3-3.3c-4.1,1-8.4,1.2-12.6,0.6c-22.2-3.5-43.7-2.9-64,8.5
			c-2.3,1.3-6,0.8-8.9,0.2c-17.2-3.1-34.2-7.9-51.6-9.6c-36.5-3.6-66.4,13.7-75.5,45.1c-4.6,15.7-6.3,32.1-5,48.4
			c3.1,36.5,12.6,72,25.7,106.2c6.2,16.7,14.5,32.5,24.5,47.2c12.9,18.7,29.6,18.1,44.5,0.9c6.3-7.3,13-14.4,18.8-22.1
			c6-8,12.5-12.1,22.4-6.7c2.3,1.3,5.3,1.3,8.3,2c-4.1,7.9-9.9,12.5-18.3,14.1c-5.4,1-11.1,2.1-15.9,4.5c-3.5,1.8-8.2,5.8-8.2,8.9
			c0,3.7,3.7,9.7,7,10.6c10.7,3,22.1,6,33,5.5c9.3-0.4,18.3-5.8,26.2-8.5c1.6,22.2,2.1,45.4,5.2,68.3c2.2,16.5,11.5,29.7,28.7,34.3
			c29.4,7.8,60.4-11.5,65.6-41.2c4-22.7,6.6-45.6,9.6-66.2c14.1-1.5,28.1-1.5,41-5c10-2.8,19.2-9.6,27.7-15.9
			c3.1-2.3,5.5-9.4,4.2-12.5c-1.2-2.9-7.9-3.9-12.4-4.7c-3-0.5-6.3,1.1-9.5,1.4C330.2,232,319.8,234,309,229.4L309,229.4z"/>
		<path class="st0" d="M293.4,228.2c-10.5,3.8-13.3,12.7-14.4,23.4c-2.8,26.5-5.8,52.9-9.6,79.2c-3.5,23.7-27.1,39.1-50.7,34
			c-11.8-2.5-22-14.3-22.9-29c-1.6-23.9-2.1-47.9-3-71.9c-0.1-3.2,0.2-6.4,0.3-9.7c0.3-16.4-6.4-24.3-23.7-26.9
			c3.4-8.5,6.3-16.9,10.1-25c12.2-26.5,10.7-53.6,3.2-80.7c-4.4-15.9-20.1-22.5-39.6-17.6c-7,1.8-13.8,4.5-20.7,6.8
			c2.4-57.8,35.7-93.7,91.8-82.9c41.2,7.9,66.9,34.4,83.6,73.1c-5.6,0-9.9-0.2-14.1,0c-23.9,1.1-36.1,15.9-30.7,39.3
			c3,12.5,7.3,24.6,12.9,36.1C274,194,283.9,210.6,293.4,228.2z"/>
		<path class="st0" d="M139.5,36.3c-23.3,26.6-30,57.6-30.1,91c-0.1,16.9-0.7,33.9-1.5,50.8c-0.8,16.6,4,29.8,18.6,47.1
			c-10.3,11.8-20.3,23.9-31,35.3c-7.3,7.8-16.3,7.5-22.9-2.5c-8.8-13.3-17.8-27.2-22.5-42.2c-10.4-33.4-19-67.4-26-101.7
			c-2.8-14.1-0.6-29.8,2.4-44.2c4.7-23.2,20.2-36.8,43.7-41C93.9,24.7,116.6,28.9,139.5,36.3z"/>
		<path class="st0" d="M302.3,217.8c9.3-19.4,6.6-39,4.8-59c-1.1-11.8,0.5-23.9,2-35.8s0.6-23.2-4.7-34.1
			c-12.6-26.4-30.8-47.4-56.9-61.3c-1-0.5-1.9-1.2-3-2c33.1-11.1,77.4,1.7,99.2,27.8c10.1,12.2,8,26.3,6.3,39.6
			c-5.8,44.1-22.5,84.4-45.4,122.3C303.9,216.2,303.1,217,302.3,217.8z"/>
		<path class="st0" d="M158.1,225.7c-24.6-3.2-39.3-20.5-38.7-44.6c0.4-17.2,0.8-34.4,1.5-51.6c0.1-2,1.4-5.1,2.9-5.6
			c10.6-3.7,21.2-8.1,32.2-9.8c9-1.4,14.8,4.2,16.8,13.2c5.8,25.3,6.9,50.3-5.2,74.4C163.8,209.2,161.3,217.4,158.1,225.7z M156,117
			l-7.7,7.4c3.6,2.8,7,6.9,11.1,7.8c2.3,0.5,5.7-4.2,8.7-6.5L156,117z"/>
		<path class="st0" d="M294.3,207.5c-12.2-24-26.1-44.1-30.7-68.5c-3.4-17.9,3.8-26.7,22.1-27.1c4-0.1,8,0,14.6,0
			C289.1,143.3,303.1,174.6,294.3,207.5z M281.4,114.9l-10.4,7.5c2.6,1.8,5.5,5.6,7.6,5.1c3.6-0.8,6.7-4.1,10-6.4L281.4,114.9z"/>
		<path class="st0" d="M127.1,265.7c3.4-0.9,6.3-1.9,9.4-2.4c11.8-2,21.4-7,28.3-17.3c2.9-4.4,6.6-10.1,13.3-4.6
			c5.2,4.3,4.8,10.7-0.8,16.8C164.6,271.8,142.6,275.2,127.1,265.7z"/>
		<path class="st0" d="M348.7,241.3c-18.5,13.7-37,15.9-59.3,12.8c1.8-5.1,2.1-10.5,5-13.2c2.3-2.1,7.7-0.8,11.7-0.6
			c10.3,0.6,20.6,1.5,30.9,2C340.2,242.5,343.3,241.8,348.7,241.3z"/>
	</g>
</g>
</svg>
