<svg xmlns="http://www.w3.org/2000/svg" viewBox="0 0 388.49 345.59"><defs><style>.cls-1{fill:#fff1d9;}</style></defs><g id="Capa_2" data-name="Capa 2"><g id="Capa_1-2" data-name="Capa 1"><circle class="cls-1" cx="194.25" cy="172.47" r="34.7" transform="translate(-51.21 87.46) rotate(-22.5)"/><path class="cls-1" d="M368.51,137.88c-12-10-29-19-49.09-25.89q-6-2.08-12.49-3.94c.7-2.88,1.34-5.71,1.92-8.51,4.56-22.12,5.52-42.49,2.77-58.9C308.67,23,301.54,10.46,291,4.38c-10.14-5.85-23.95-5.84-39.92,0C236.39,9.81,220.16,20,204.11,34q-4.83,4.22-9.67,8.87-3.23-3.09-6.44-5.94c-16.89-15-34.06-26-49.65-31.82-16.75-6.25-31.18-6.33-41.71-.23-10.14,5.86-17,17.83-19.91,34.61-2.66,15.4-1.9,34.58,2.18,55.46.83,4.2,1.79,8.5,2.87,12.86q-7.45,2.11-14.38,4.52c-19.78,6.9-36.42,15.83-48.11,25.83C6.67,149,0,160.81,0,172.45c0,12,7,24.33,20.3,35.7,12.5,10.7,30,20.1,50.74,27.17,3.37,1.15,6.88,2.25,10.5,3.29q-1.76,7.09-3.05,13.9C74.59,273.1,74,292,76.84,307.09c3,16.32,10,28,20.07,33.84a36.54,36.54,0,0,0,18.53,4.55,68.39,68.39,0,0,0,22.54-4.3c15.51-5.48,32.42-16,48.88-30.38q4-3.54,8.12-7.48,5.25,5.06,10.48,9.56c15.89,13.67,32,23.59,46.47,28.7a64.49,64.49,0,0,0,21.18,4,35.79,35.79,0,0,0,18.16-4.5c10.37-6,17.53-18.26,20.72-35.45,3-16.18,2.35-36.07-1.9-57.53q-1-5.09-2.33-10.39,3.69-1.09,7.22-2.26c21.44-7.1,39.56-16.44,52.4-27,13.81-11.37,21.11-23.81,21.11-36C388.49,160.74,381.58,148.79,368.51,137.88ZM256.79,20a49,49,0,0,1,16.46-3.4,18.85,18.85,0,0,1,9.45,2.16c6,3.47,10.48,12.22,12.55,24.63,2.42,14.41,1.5,32.68-2.65,52.81q-.78,3.8-1.74,7.71a398,398,0,0,0-52-8.21q-6-8.55-12.19-16.54Q216.43,65.86,206.08,54.7q4.46-4.29,8.93-8.18C229.55,33.87,244,24.7,256.79,20Zm-8.33,184.1q-9.15,15.87-18.59,30c-11.54.83-23.47,1.25-35.62,1.25s-23.89-.37-35.14-1.09c-6.64-9.66-13-19.76-19-30.13h0c-6-10.37-11.55-20.85-16.57-31.28,5-10.51,10.57-21,16.52-31.33h0c6-10.38,12.29-20.42,18.82-30,11.62-.88,23.49-1.34,35.39-1.34s23.87.45,35.44,1.33c6.42,9.48,12.7,19.49,18.72,29.9,6.13,10.58,11.73,21,16.76,31.15C260.12,183,254.53,193.57,248.46,204.09Zm25.68-12.33a348.61,348.61,0,0,1,13,34.18,357.42,357.42,0,0,1-36.23,6.18q6-9.57,11.9-19.74T274.14,191.76Zm-79.21,87.77c-7.87-8.5-15.72-17.91-23.38-28q11.14.44,22.7.44,11.91,0,23.51-.52A350.54,350.54,0,0,1,194.93,279.53Zm-57-47.08a351.21,351.21,0,0,1-35.8-5.76c3.44-11.08,7.68-22.61,12.6-34.29q5.2,10.08,11,20.08h0Q131.63,222.68,137.93,232.45Zm-23.24-79.11c-4.82-11.43-9-22.69-12.34-33.59,11.09-2.47,22.92-4.5,35.2-6q-6.12,9.54-11.89,19.55T114.69,153.34Zm79.75-86.77c7.64,8.29,15.31,17.55,22.86,27.6q-11.42-.54-23.05-.54t-22.87.53C178.91,84.23,186.64,75,194.44,66.57Zm68.34,66.57Q257,123.18,251,113.7c12.37,1.56,24.25,3.64,35.43,6.19A354.17,354.17,0,0,1,274,153.36Q268.67,143.32,262.78,133.14ZM95.2,91.76c-3.7-18.92-4.43-36-2.12-49.46,2-11.6,6.21-19.79,11.87-23.06,6-3.48,15.82-3,27.6,1.42,13.69,5.11,29,15,44.43,28.68,1.93,1.72,3.88,3.51,5.83,5.37a398.45,398.45,0,0,0-33.1,40.95c-8.15.76-16.2,1.73-24.1,2.9-9.67,1.44-18.94,3.17-27.74,5.16Q96.35,97.63,95.2,91.76ZM76.41,219.62C57.68,213.21,42,204.89,31.1,195.55c-9.35-8-14.5-16.21-14.5-23.1,0-6.54,4.78-14.24,13.48-21.68C40.22,142.1,55,134.23,72.86,128c4.27-1.49,8.74-2.89,13.38-4.21a396.27,396.27,0,0,0,18.93,49.05Q100,184,95.64,195.18c-3.7,9.39-6.93,18.56-9.65,27.44Q81,221.2,76.41,219.62Zm56,105.91c-11.61,4.1-21.29,4.46-27.25,1-5.67-3.27-10-11.27-12-22.51-2.44-13.12-1.88-29.87,1.65-48.45.79-4.19,1.74-8.51,2.84-12.92q14.24,3.13,30.37,5.26,10.67,1.4,22,2.31,7,9.88,14.4,19.16,9.45,11.85,19,22.08-3.72,3.58-7.41,6.82C161,311.33,146,320.74,132.45,325.53Zm161.36-74.2c3.84,19.42,4.49,37.15,1.87,51.28-2.25,12.1-6.77,20.67-12.72,24.11-5.67,3.28-14.73,3-25.52-.8-12.59-4.43-26.82-13.28-41.15-25.62-3.23-2.77-6.48-5.75-9.75-8.9q9.83-10.74,19.71-23.65,6.48-8.47,12.86-17.71,10.15-.9,19.93-2.22c11.55-1.56,22.47-3.53,32.67-5.89Q292.9,246.73,293.81,251.33Zm63-55.7c-11.29,9.29-27.57,17.61-47.08,24.07-2.12.71-4.3,1.39-6.52,2.05-3-9.36-6.56-19.14-10.77-29.26-2.73-6.54-5.7-13.2-8.9-19.93q4.29-9.26,8-18.38c4.25-10.38,7.89-20.46,10.88-30.14q5.94,1.72,11.53,3.64c18.22,6.28,33.39,14.21,43.86,22.95,9,7.54,14,15.29,14,21.82C371.89,179.4,366.55,187.63,356.84,195.63Z"/></g></g></svg>