<svg xmlns="http://www.w3.org/2000/svg" viewBox="0 0 32.07 26.14"><defs><style>.cls-1{fill:#e1dfba;}.cls-2{fill:#161913;}</style></defs><g id="Capa_2" data-name="Capa 2"><g id="Capa_1-2" data-name="Capa 1"><path class="cls-1" d="M25.86,4.66a12.84,12.84,0,0,1-.43,3.14c-.08.32,0,.41.33.5a15.35,15.35,0,0,1,3.71,1.5A7.83,7.83,0,0,1,31,10.93a2.66,2.66,0,0,1,0,4.22,10.24,10.24,0,0,1-3.36,2.07,17.8,17.8,0,0,1-2,.69c-.19.05-.25.11-.2.31a11.87,11.87,0,0,1,.41,4A5,5,0,0,1,25,25a2.92,2.92,0,0,1-2.83,1.1,9.58,9.58,0,0,1-4.46-1.93,16.22,16.22,0,0,1-1.3-1c-.2-.18-.3-.19-.52,0a13.66,13.66,0,0,1-4,2.49,5.87,5.87,0,0,1-2.69.46,2.82,2.82,0,0,1-2.32-1.52A5.67,5.67,0,0,1,6.2,22a12.33,12.33,0,0,1,.46-3.72c.06-.23,0-.29-.23-.36a14.27,14.27,0,0,1-4.51-2A5.8,5.8,0,0,1,.53,14.57a2.48,2.48,0,0,1,.1-3.18A8.34,8.34,0,0,1,3.87,9.14a16.41,16.41,0,0,1,2.58-.9c.25-.06.29-.14.23-.35A13.22,13.22,0,0,1,6.2,4.2a6.67,6.67,0,0,1,.36-2.07,3.09,3.09,0,0,1,3.91-2,11.14,11.14,0,0,1,4.29,2.08,12.72,12.72,0,0,1,1.08.86c.18.16.26.13.43,0A14.26,14.26,0,0,1,20.32.49,6.08,6.08,0,0,1,22.38,0a2.91,2.91,0,0,1,3,1.9A7.21,7.21,0,0,1,25.86,4.66Z"/><path class="cls-2" d="M16,17.79c-.88,0-1.74,0-2.61-.05a.44.44,0,0,1-.37-.19,36.57,36.57,0,0,1-2.72-4.3.34.34,0,0,1,0-.35A36.33,36.33,0,0,1,13,8.64a.4.4,0,0,1,.35-.2,33,33,0,0,1,4.1-.06c.44,0,.87,0,1.31,0a.44.44,0,0,1,.35.2,41.24,41.24,0,0,1,2.71,4.25.37.37,0,0,1,0,.38,42.87,42.87,0,0,1-2.68,4.26.46.46,0,0,1-.42.21C17.79,17.75,16.89,17.83,16,17.79Z"/><path class="cls-2" d="M7,9.4c.16,0,.14.12.17.2a24.33,24.33,0,0,0,1.28,3,.86.86,0,0,1,0,.89,23.47,23.47,0,0,0-1.29,3.07c0,.14-.07.25-.29.19a13,13,0,0,1-4.22-1.92,4,4,0,0,1-1-1,1.32,1.32,0,0,1,0-1.73A4.7,4.7,0,0,1,3.11,11,13.88,13.88,0,0,1,6.93,9.43Z"/><path class="cls-2" d="M7.59,21.59a11.71,11.71,0,0,1,.41-3c.05-.2.12-.23.34-.19a30.3,30.3,0,0,0,3.81.49.46.46,0,0,1,.36.19A29.85,29.85,0,0,0,15,21.9c.09.09.13.15,0,.25a11.74,11.74,0,0,1-4.4,2.55,3.89,3.89,0,0,1-1,.16A1.54,1.54,0,0,1,8,24a4.43,4.43,0,0,1-.44-1.74C7.57,22,7.59,21.81,7.59,21.59Z"/><path class="cls-2" d="M24.55,21.52A5.78,5.78,0,0,1,24,24a1.54,1.54,0,0,1-1.58.9,4.37,4.37,0,0,1-1-.16,10.76,10.76,0,0,1-3.4-1.84c-.3-.22-.57-.47-.87-.69-.13-.11-.13-.19,0-.31a27.59,27.59,0,0,0,2.41-2.78.39.39,0,0,1,.32-.19,31.67,31.67,0,0,0,3.89-.55c.22,0,.28,0,.33.18A14.65,14.65,0,0,1,24.55,21.52Z"/><path class="cls-2" d="M7.59,4.47a5.14,5.14,0,0,1,.28-1.93,1.71,1.71,0,0,1,2.28-1.18,9.78,9.78,0,0,1,3.57,1.72c.42.29.8.61,1.2.92.13.1.14.18,0,.3a28.49,28.49,0,0,0-2.48,2.81c-.13.17-.32.15-.48.17q-1.58.13-3.12.42H8.74c-.67.13-.68.13-.81-.47A11.67,11.67,0,0,1,7.59,4.47Z"/><path class="cls-2" d="M24.48,4.6a13.27,13.27,0,0,1-.42,3.06c0,.16-.09.19-.26.16A32.5,32.5,0,0,0,20,7.27.59.59,0,0,1,19.54,7a26.22,26.22,0,0,0-2.36-2.7c-.09-.09-.18-.15,0-.28a12.38,12.38,0,0,1,4.18-2.54,3.91,3.91,0,0,1,1.28-.22A1.42,1.42,0,0,1,23.9,2a3.55,3.55,0,0,1,.51,1.58A4.51,4.51,0,0,1,24.48,4.6Z"/><path class="cls-2" d="M30.69,13.06a1.91,1.91,0,0,1-.71,1.3,6.47,6.47,0,0,1-1.18.88,15.56,15.56,0,0,1-3.52,1.46c-.18.05-.26,0-.32-.14a25.67,25.67,0,0,0-1.45-3.32.37.37,0,0,1,0-.38A28,28,0,0,0,24.9,9.62c.05-.15.09-.23.3-.17a13.33,13.33,0,0,1,4.36,2,3.5,3.5,0,0,1,.89.91A1.19,1.19,0,0,1,30.69,13.06Z"/><path class="cls-2" d="M22.63,14.52c.4.82.72,1.61,1,2.4.07.19-.07.2-.19.22-.89.16-1.78.31-2.72.4C21.4,16.55,22,15.58,22.63,14.52Z"/><path class="cls-2" d="M9.48,14.58c.59,1,1.2,2,1.89,3-.83-.08-1.6-.19-2.37-.33-.57-.1-.57-.11-.39-.6s.48-1.24.76-1.85Z"/><path class="cls-2" d="M14.17,19A34.41,34.41,0,0,0,18,19l-.42.51c-.43.49-.87,1-1.31,1.46-.1.12-.17.14-.29,0C15.35,20.38,14.77,19.75,14.17,19Z"/><path class="cls-2" d="M14.21,7.05,15.32,5.8c.19-.21.4-.41.59-.61s.16-.12.27,0a23.65,23.65,0,0,1,1.74,1.94c-1.26,0-2.46,0-3.66,0Z"/><path class="cls-2" d="M22.62,11.58c-.6-1-1.2-2-1.86-2.93a4.24,4.24,0,0,1,1,.1c.55.08,1.1.2,1.65.29.14,0,.19.07.14.19A21.92,21.92,0,0,1,22.62,11.58Z"/><path class="cls-2" d="M11.29,8.68c-.63.93-1.24,1.88-1.82,2.9a22.75,22.75,0,0,1-1-2.4c0-.08,0-.12.09-.14a21.6,21.6,0,0,1,2.66-.4Z"/><path class="cls-1" d="M18.9,13A2.76,2.76,0,0,1,16,15.68,2.75,2.75,0,0,1,13.18,13,2.71,2.71,0,0,1,16,10.43,2.72,2.72,0,0,1,18.9,13Z"/></g></g></svg>