<svg xmlns="http://www.w3.org/2000/svg" viewBox="0 0 381.98 362.74"><defs><style>.cls-1{fill:#fff1d9;}</style></defs><g id="Capa_2" data-name="Capa 2"><g id="Capa_1-2" data-name="Capa 1"><path class="cls-1" d="M264.55,252.92a27.29,27.29,0,0,0-2.91-54.42h-1a27.18,27.18,0,0,0-26.24,28.18,27.93,27.93,0,0,0,7.77,18c-16.52,32.55-41.78,56.36-79.68,76.28-25.75,13.61-52.47,18.47-79.19,15.07-21.87-2.92-38.87-12.63-49.57-28.67-15.54-23.81-17-49.56-3.88-75.31,9.23-18.47,23.81-32.07,33-38.87-2-6.32-4.86-17-6.32-24.78-70.45,51-63.16,120-41.78,152.56,16,24.3,48.58,39.36,84.54,39.36a119.39,119.39,0,0,0,29.15-3.4c62.19-12.15,109.32-49.07,136-104Zm85.63-60.09c-37-43.32-91.52-67.18-153.83-67.18H188.7A26.58,26.58,0,0,0,165,111.14h-1a27.19,27.19,0,0,0,1,54.37h1A27.31,27.31,0,0,0,189.71,149h8.58c37,0,72,10.71,103.7,31.64,24.34,16.07,41.86,37,51.6,62.32,8.27,20.44,7.79,40.4-1,57.44-13.63,25.8-36.51,39.92-66.69,39.92-19.47,0-38-5.84-47.71-10.22-5.35,4.87-15.09,12.65-21.9,17.52,20.93,9.74,42.35,15.1,62.8,15.1,46.73,0,81.29-25.81,94.44-51.61,14.11-28.24,13.14-76.92-23.37-118.3ZM103.3,261.17a27.26,27.26,0,0,0,27.18,26.22h1a27.19,27.19,0,0,0-1-54.37h-1a8.36,8.36,0,0,0-3.4.48c-19.9-33-28.15-68.93-25.24-107.77,1.94-29.13,11.65-54.37,28.64-75.24,14.08-18,41.26-26.7,59.71-27.19,51.45-1,73.3,63.11,74.76,88.84,6.31,1.45,17,4.85,24.27,7.28C282.42,40.78,233.88,0,187.28,0c-43.69,0-84,31.55-100,78.16C65,140.3,79.51,200,106.69,247.09a21.83,21.83,0,0,0-3.39,14.08Z"/></g></g></svg>