<svg xmlns="http://www.w3.org/2000/svg" viewBox="0 0 344.46 394.08"><defs><style>.cls-1{fill:#fff1d9;}</style></defs><g id="Capa_2" data-name="Capa 2"><g id="Capa_1-2" data-name="Capa 1"><path class="cls-1" d="M341.18,97.93,171.25,0,1.1,97.93H0v197L172.23,394v-.94l1.12,1,171.11-98.84V97.93ZM295.25,267.08l-121.9,71.47-1.12,1v-.92L51.1,268.5l-1.89,1.66L49,126.47,169.13,54.92l121.8,66.82,4.32,2.1Z"/><polygon class="cls-1" points="61.51 203.55 61.51 257.86 61.52 259.53 110.72 285.87 110.72 231.51 62.96 204.41 61.51 203.55"/><polygon class="cls-1" points="231.64 232.13 231.64 289.7 282.95 260.03 282.95 201.05 281.39 202 231.64 232.13"/><polygon class="cls-1" points="172.23 266.45 173.54 323.12 221.44 294.74 221.44 239.4 220.15 239.4 172.23 266.45"/><polygon class="cls-1" points="172.23 266.45 124.37 239.4 123.02 239.4 123.02 294.76 123.03 296.33 172.23 322.78 172.23 321.81 173.54 323.12 172.23 267.04 172.23 266.45"/><polygon class="cls-1" points="216.87 94.08 168.72 65.61 121.38 93.68 169.53 121.74 216.87 94.08"/><polygon class="cls-1" points="109.76 100.34 109.87 100.23 62.42 128.2 73.34 134.61 62.86 128.68 61.51 128.68 61.51 189.84 110.72 215.91 110.72 156.37 157.91 128.81 109.76 100.34"/><polygon class="cls-1" points="282.12 183.09 281.47 128.68 231.9 101.54 231.9 101.56 183.23 130.04 231.23 158.04 231.64 213.66 282.12 183.09"/><polygon class="cls-1" points="123.02 220.95 123.02 222.61 173.23 249.04 221 219.8 221.23 167.04 171.43 137.17 123.02 165.59 123.02 220.95"/></g></g></svg>