<svg xmlns="http://www.w3.org/2000/svg" viewBox="0 0 351.77 400"><defs><style>.cls-1{fill:#fff1d9;}</style></defs><g id="Capa_2" data-name="Capa 2"><g id="Capa_1-2" data-name="Capa 1"><path class="cls-1" d="M338.73,0H13a13,13,0,0,0-13,14.4L29.8,347.78c.69,7.8,7.44,16,15,18.06l117.28,32.58c7.55,2.09,19.89,2.11,27.46,0L307,365.92c7.56-2.1,14.3-10.19,15-18L351.72,14.4A13,13,0,0,0,338.73,0ZM282.5,120.36a.09.09,0,0,1-.09.1.12.12,0,0,1-.13-.06l-92.4,37.87a3,3,0,0,0-1.47,4.23,3,3,0,0,0,2.67,1.5h71.78a13.42,13.42,0,0,1,13.34,14.84L265,283.75A13.43,13.43,0,0,1,256.13,295l-76,26.73a13.43,13.43,0,0,1-8.85,0L95.7,295.55a13.43,13.43,0,0,1-9-11.26l-5.07-47.51A8.83,8.83,0,0,1,90.59,227h21a8.87,8.87,0,0,1,8.77,8l3.11,29.67,52.28,18.49,52.52-18.66L234.72,203H86.22a8.82,8.82,0,0,1-8.77-7.86l-2.83-25.63A8.82,8.82,0,0,1,80,160.38l95-39.18a2.44,2.44,0,0,0-1-4.7h-100a5.92,5.92,0,0,1-5.88-5.29l-2.9-27.6a6.06,6.06,0,0,1,.23-2.47A5.91,5.91,0,0,1,71.18,77H280.72a5.81,5.81,0,0,1,2.47.5,5.94,5.94,0,0,1,3.49,6.09Z"/></g></g></svg>