<svg xmlns="http://www.w3.org/2000/svg" viewBox="0 0 394.92 88.11"><defs><style>.cls-1{fill:#fff1d9;}</style></defs><g id="Capa_2" data-name="Capa 2"><g id="Capa_1-2" data-name="Capa 1"><path class="cls-1" d="M127.49,88.11h-5V1.85H127V14.62l.48.2a20.87,20.87,0,0,0,1.33-1.8C134.3,3.45,143.07-.77,154.05.34c12.81,1.31,19.76,9.07,23.39,20.6a41.28,41.28,0,0,1-2.51,31.83c-4.51,9.07-12.32,13.17-22.07,13.72-7.34.41-14.38-.88-20.09-6a78.29,78.29,0,0,1-5.28-5.8Zm47.25-54.57c-.22-2.17-.32-4.36-.7-6.5a38.43,38.43,0,0,0-1.49-5.79c-4.11-12.08-12.47-17.6-24.93-16.54a21.13,21.13,0,0,0-18.17,15.1,48.18,48.18,0,0,0-1,24.22c1.72,8.24,6.54,16.84,20.51,18.31a22.37,22.37,0,0,0,22-12.32A38.57,38.57,0,0,0,174.74,33.54Z"/><path class="cls-1" d="M56.08,34.31H5.24A30.29,30.29,0,0,0,8.61,50.68c5.24,9.66,15.67,13.68,27.22,10.48A19.31,19.31,0,0,0,50,47.27c1-3.39,2.36-4.17,5.7-3.12-.21,1-.36,2.13-.64,3.18A25.75,25.75,0,0,1,31.18,66.55c-8.09.49-15.4-1.67-21.53-7C4.5,55.06,2.16,49,.76,42.44c-1.45-6.79-.62-13.33.81-20C4,11.2,14.37,1.43,25.66.23a26.87,26.87,0,0,1,27.86,16C55.66,21.19,56.84,29.32,56.08,34.31ZM51.35,29.8c-.16-13.56-9-26-24-25.1-12.51.72-23.13,12.64-22,25.1Z"/><path class="cls-1" d="M276.68,34.26H225.17c-1.12,8.58,2.52,19.73,11.2,25,7.73,4.67,18.72,4.17,25.81-1.24a23.07,23.07,0,0,0,7.73-11.47c.52-1.56,1.26-2.84,3.23-2.84,1.52,0,2.15.49,1.8,2.11-1.81,8.28-6.37,14.48-14,18.13-17.56,8.35-36.71-1.67-40.25-21a44.81,44.81,0,0,1,3-26.93A26.71,26.71,0,0,1,251.55.42c13.8,1.93,21.59,9.89,23.8,24.36C275.81,27.85,276.21,30.93,276.68,34.26ZM271,29.75c.36-11.44-7.35-25.52-22.49-25.13C235.08,5,224,16.76,225.18,29.75Z"/><path class="cls-1" d="M333,20.37c-.34,0-.59.08-.83.09-3.09.09-3.09.09-3.56-3-1-6.39-5.67-11-12.68-12.28a28.83,28.83,0,0,0-18.77,2.57A9.42,9.42,0,0,0,291.64,17c.12,4.42,2.11,7.86,6.39,9.2,7.32,2.29,14.75,4.21,22.14,6.27,1.14.32,2.3.57,3.45.86,6.41,1.63,10.65,6.13,11.44,12.15,1,7.8-1.51,13.73-7.7,17-9.71,5.16-19.76,5.14-29.87,1.23-6.61-2.57-10.51-7.61-12.18-14.41-.36-1.49-.45-3.05-.68-4.73H289a48.36,48.36,0,0,0,1.62,5.76c2.91,7.14,8.75,10.45,16,11.74a27.39,27.39,0,0,0,17.64-2.73c4.82-2.45,6.68-6.54,6.24-11.76-.4-4.69-3.06-7.68-7.5-9-6.74-2.07-13.52-4-20.25-6.07-2.55-.8-5-1.85-7.51-2.89-5.86-2.45-8.57-6.65-8.38-13,.19-6,2.66-10.53,8.29-13.15,9.79-4.57,19.55-4.63,29.24.15A16,16,0,0,1,333,20.37Z"/><path class="cls-1" d="M392.45,20.37h-4c-.15-1-.29-2.07-.45-3.1-.87-5.4-3.84-9.22-9-11A28.55,28.55,0,0,0,357.44,7c-4.29,1.85-6.68,6.14-6.33,11.11.3,4.2,3.25,7.58,7.75,8.8,8.31,2.24,16.73,4.12,24.91,6.76a15.81,15.81,0,0,1,7.34,25.4c-3,3.52-7,5.14-11.27,6.3A34.91,34.91,0,0,1,356.9,64c-8-3.28-13.21-11.42-12.37-19.4h3.94c.21.66.44,1.36.67,2.06A23.34,23.34,0,0,0,385.56,58.2c3.78-2.89,5.1-6.88,4.42-11.47-.64-4.32-3.33-7-7.46-8.25-7-2.12-14.11-4.17-21.14-6.34-2.26-.7-4.46-1.61-6.65-2.52-6.18-2.58-9.18-7.83-8.36-14.46C347,9.88,349.51,6,354.43,3.6c10-4.75,19.89-4.79,29.71.27C390.11,7,393.81,14.43,392.45,20.37Z"/><path class="cls-1" d="M60.75,1.89c3.57-1.18,6.62-.1,8.89,3q8,10.86,16,21.7c.33.45.69.87,1.14,1.42.4-.49.74-.89,1.06-1.32q8.28-11.11,16.56-22.25c1.86-2.52,4.6-3.45,8-2.52-.31.49-.55,1-.87,1.37q-9.93,13.05-19.89,26.08c-1.46,1.9-1.47,3,0,4.85q11,14.69,22,29.39c.26.35.48.72.73,1.08-2.93,1.41-6.35.26-8.45-2.67q-9-12.56-18.1-25.07c-.32-.44-.7-.85-1.15-1.41-.41.52-.76.92-1.08,1.35L67,62.27a6.74,6.74,0,0,1-7.94,2.42c.49-.69.93-1.34,1.4-2C67.83,52.85,75.16,43,82.57,33.14a2,2,0,0,0,0-2.87C75.63,21.38,68.8,12.45,62,3.52,61.58,3,61.23,2.53,60.75,1.89Z"/><path class="cls-1" d="M194.66,1.86V13.93c5.91-8.7,14.29-12.2,24.6-12.34V5.74c-2,.22-4,.27-5.89.67A23.06,23.06,0,0,0,194.74,29.5q0,16.68,0,33.37v2h-4.41v-63Z"/></g></g></svg>