<svg xmlns="http://www.w3.org/2000/svg" viewBox="0 0 375.57 387"><defs><style>.cls-1{fill:#fff1d9;}</style></defs><g id="Capa_2" data-name="Capa 2"><g id="Capa_1-2" data-name="Capa 1"><path class="cls-1" d="M328.12,221.57,349,218.05c10-1.69,19.28,2,23.76,9.51s3.73,17.37-3.11,25.26c-15.57,18-36.37,24.68-59.31,26.22-3.76.26-7.55,0-11.93,0-1.33,13.16-2.41,25.9-4,38.56a133.76,133.76,0,0,1-3.93,19.75c-9.49,33.49-33.72,50.86-73.15,49.54-16-.54-27.1-10-33.94-24.23-7.34-15.32-9.92-31.75-10.59-48.52-.31-7.5-.06-15-.06-23.62-24.06,6.05-45.69,6-65.1-8.54-24.89,12.29-41.49,8.32-57.91-14.83-16.13-22.74-24.82-48.88-32.15-75.4C8.23,158-1.74,124.19.26,88.46,3.38,32.44,38.72,2,94.87,5.6c16.18,1.06,32.11,5.84,48.2,8.64,2.92.5,6.52.57,9.05-.69,20.58-10.17,42.26-10.39,64.37-8.1a44.44,44.44,0,0,0,13.76-.71c33.44-7.28,66.21-7.42,97.59,8.47,3.9,2,7.59,4.38,11.31,6.69,29.57,18.25,38.67,45,33.53,78.36-6.18,40.1-20,77.37-39,113C332.15,214,330.66,216.79,328.12,221.57Zm-19.1,7.8c1.84-3.15,3.25-5.65,4.73-8.11,22.43-37.11,38.66-76.57,46.35-119.45,7.43-41.49-5.49-65.89-44.7-82-28-11.5-56.49-10.47-85.28-3.27a32.49,32.49,0,0,1-12.65.62c-22.22-3.51-43.71-2.92-64,8.54-2.29,1.3-6,.77-8.88.25-17.21-3.15-34.24-7.87-51.58-9.56C56.48,12.78,26.58,30.14,17.46,61.47a136,136,0,0,0-5,48.39c3.07,36.53,12.64,72,25.65,106.23A222.18,222.18,0,0,0,62.6,263.3c12.92,18.66,29.63,18.1,44.48.94,6.33-7.31,13-14.38,18.81-22.07,6-8,12.46-12.13,22.36-6.7,2.34,1.28,5.34,1.33,8.27,2-4.06,7.92-9.91,12.47-18.33,14.05-5.43,1-11.08,2.09-15.92,4.54-3.52,1.78-8.17,5.83-8.18,8.9,0,3.66,3.7,9.68,7,10.59,10.74,3,22.08,6,33,5.47,9.26-.44,18.28-5.77,26.25-8.54,1.57,22.25,2.13,45.43,5.19,68.28,2.2,16.49,11.5,29.73,28.74,34.32,29.42,7.83,60.39-11.48,65.62-41.19,4-22.7,6.64-45.64,9.57-66.2,14.11-1.55,28.06-1.45,41-5.05,10-2.78,19.18-9.55,27.74-15.88,3.08-2.28,5.51-9.38,4.16-12.54-1.22-2.86-7.9-3.91-12.36-4.66-3-.51-6.28,1.1-9.48,1.42C330.16,232,319.75,234,309,229.37Z"/><path class="cls-1" d="M293.4,228.18C282.86,232,280.11,240.92,279,251.57c-2.78,26.46-5.76,52.92-9.61,79.25-3.47,23.73-27.13,39.06-50.74,34-11.84-2.55-22-14.27-22.95-29-1.58-23.93-2.09-47.94-3-71.91-.12-3.22.2-6.44.26-9.66.31-16.36-6.4-24.31-23.71-26.88,3.4-8.49,6.34-16.91,10.05-25,12.21-26.5,10.68-53.61,3.21-80.67-4.39-15.91-20.13-22.46-39.6-17.61-7,1.76-13.8,4.54-20.65,6.84C124.63,53.14,158,17.23,214.08,28c41.23,7.91,66.89,34.39,83.59,73.14-5.65,0-9.9-.17-14.13,0-23.91,1.08-36.06,15.89-30.73,39.32a173.58,173.58,0,0,0,12.93,36.15C274.05,194,283.86,210.59,293.4,228.18Z"/><path class="cls-1" d="M139.54,36.27c-23.26,26.59-30,57.65-30.12,91-.07,16.94-.65,33.89-1.53,50.81-.85,16.58,4,29.79,18.6,47.06-10.28,11.77-20.31,23.87-31,35.32-7.32,7.83-16.31,7.5-22.93-2.48-8.79-13.28-17.84-27.25-22.45-42.25A1029.89,1029.89,0,0,1,24.14,114.07c-2.8-14.08-.56-29.85,2.36-44.25,4.71-23.16,20.23-36.82,43.73-41C93.89,24.7,116.57,28.92,139.54,36.27Z"/><path class="cls-1" d="M302.26,217.75c9.33-19.42,6.59-39,4.77-59-1.08-11.77.52-23.91,2.05-35.75s.57-23.18-4.67-34.14c-12.62-26.36-30.84-47.43-56.9-61.27-1-.51-1.85-1.19-3-2,33.07-11.06,77.39,1.69,99.16,27.79C353.72,65.55,351.71,79.68,350,93c-5.75,44.11-22.48,84.41-45.43,122.27A18.12,18.12,0,0,1,302.26,217.75Z"/><path class="cls-1" d="M158.1,225.68c-24.57-3.22-39.31-20.46-38.73-44.55.41-17.21.84-34.43,1.52-51.63.08-2,1.39-5.09,2.86-5.6,10.59-3.71,21.18-8.1,32.16-9.85,9-1.43,14.76,4.24,16.83,13.24,5.82,25.3,6.89,50.26-5.2,74.43C163.79,209.23,161.33,217.37,158.1,225.68ZM156,117l-7.66,7.39c3.65,2.78,7,6.87,11.08,7.82,2.26.53,5.74-4.18,8.67-6.53Z"/><path class="cls-1" d="M294.3,207.47c-12.17-24-26.08-44.14-30.66-68.51-3.37-17.9,3.81-26.72,22.11-27.07,4-.08,8,0,14.6,0C289.06,143.32,303.13,174.58,294.3,207.47Zm-12.92-92.61L271,122.34c2.58,1.85,5.55,5.58,7.63,5.13,3.62-.78,6.7-4.13,10-6.41Z"/><path class="cls-1" d="M127.11,265.68c3.37-.89,6.32-1.92,9.36-2.42,11.79-1.95,21.44-7,28.31-17.27,2.91-4.35,6.56-10.11,13.29-4.58,5.19,4.26,4.78,10.74-.84,16.8C164.65,271.75,142.57,275.22,127.11,265.68Z"/><path class="cls-1" d="M348.68,241.33c-18.45,13.66-37,15.92-59.29,12.83,1.76-5.09,2.12-10.54,5-13.16,2.27-2.05,7.72-.84,11.73-.63,10.32.56,20.61,1.47,30.93,2C340.18,242.51,343.31,241.84,348.68,241.33Z"/></g></g></svg>